<svg xmlns="http://www.w3.org/2000/svg" viewBox="0 0 512 512">
  <defs>
    <linearGradient id="primaryGrad" x1="0%" y1="0%" x2="100%" y2="100%">
      <stop offset="0%" stop-color="#818CF8" />
      <stop offset="100%" stop-color="#4F46E5" />
    </linearGradient>
  </defs>
  <!-- Background -->
  <rect width="512" height="512" rx="120" fill="url(#primaryGrad)" />
  <!-- Server / EC2 Icon -->
  <g transform="translate(100, 106)" fill="none" stroke="#FFFFFF" stroke-width="32" stroke-linecap="round" stroke-linejoin="round">
    <!-- Server Stack Top -->
    <rect x="36" y="24" width="240" height="80" rx="24" fill="rgba(255,255,255,0.15)" />
    <!-- Server Stack Middle -->
    <rect x="36" y="132" width="240" height="80" rx="24" fill="rgba(255,255,255,0.15)" />
    <!-- Server Stack Bottom -->
    <rect x="36" y="240" width="240" height="80" rx="24" fill="rgba(255,255,255,0.15)" />
    
    <!-- Lights -->
    <circle cx="80" cy="64" r="14" fill="#10B981" stroke="none" />
    <circle cx="80" cy="172" r="14" fill="#10B981" stroke="none" />
    <circle cx="80" cy="280" r="14" fill="#FCD34D" stroke="none" />
    
    <!-- Lines -->
    <line x1="140" y1="64" x2="236" y2="64" />
    <line x1="140" y1="172" x2="236" y2="172" />
    <line x1="140" y1="280" x2="190" y2="280" />
  </g>
  <!-- Sparkles / Adviser elements -->
  <path d="M400 90 L410 115 L435 125 L410 135 L400 160 L390 135 L365 125 L390 115 Z" fill="#FCD34D" />
  <path d="M120 400 L125 412 L137 417 L125 422 L120 434 L115 422 L103 417 L115 412 Z" fill="#FCD34D" />
</svg>
